<svg preserveAspectRatio="none" overflow="visible" style="display: block;" width="12.9995" height="13.0004" viewBox="0 0 12.9995 13.0004" fill="none" xmlns="http://www.w3.org/2000/svg">
<path id="Union" d="M11.977 0C12.2647 7.91821e-05 12.5075 0.0988356 12.7045 0.295898C12.9015 0.492985 12.9995 0.73576 12.9995 1.02344C12.9994 1.31015 12.9013 1.55202 12.7045 1.74902L7.94771 6.50586L12.7045 11.2617C12.9016 11.4588 12.9995 11.6975 12.9995 11.9766C12.9994 12.2554 12.9014 12.4934 12.7045 12.6904C12.5075 12.8875 12.2647 12.9862 11.977 12.9863C11.69 12.9863 11.4476 12.8876 11.2504 12.6904L6.49459 7.95898L1.73775 12.7158C1.54074 12.9128 1.30277 13.0078 1.02388 13C0.744731 12.9913 0.506182 12.8876 0.30904 12.6904C0.112085 12.4934 0.0132091 12.2517 0.0131418 11.9648C0.0131418 11.6771 0.111957 11.4344 0.30904 11.2373L5.04049 6.50586L0.284626 1.74902C0.087545 1.55194 -0.00737348 1.31036 0.000446441 1.02344C0.00911956 0.735648 0.111948 0.493027 0.30904 0.295898C0.506182 0.0987564 0.748564 0 1.0356 0C1.32329 7.36551e-05 1.56607 0.0988301 1.76314 0.295898L6.49459 5.05176L11.2504 0.295898C11.4476 0.0987564 11.69 0 11.977 0Z" fill="#F4772B"/>
</svg>
